{"accessors" : [{"bufferView" : 0, "byteOffset" : 0, "componentType" : 5123, "count" : 2946, "type" : "SCALAR", "max" : [1133], "min" : [0]}, {"bufferView" : 1, "byteOffset" : 0, "componentType" : 5126, "count" : 1134, "type" : "VEC3", "max" : [0.48549601435661316, 0.8503590226173401, 1.1698329448699951], "min" : [-0.4604189991950989, 0.018389999866485596, -1.2730580568313599], "name" : "POSITION"}, {"bufferView" : 1, "byteOffset" : 12, "componentType" : 5126, "count" : 1134, "type" : "VEC2", "max" : [0.9983100295066833, 0.9985020160675049], "min" : [0.0015030000358819962, 0.018046975135803223], "name" : "TEXCOORD_0"}, {"bufferView" : 1, "byteOffset" : 20, "componentType" : 5126, "count" : 1134, "type" : "VEC3", "max" : [0.9988352060317993, 0.9997338652610779, 0.9642346501350403], "min" : [-0.9986780285835266, -0.9983778595924377, -0.9990729689598083], "name" : "NORMAL"}], "asset" : {"generator" : "Aspose.3D 24.6.0", "version" : "2.0"}, "buffers" : [{"uri" : "buffer.bin", "byteLength" : 42188}], "bufferViews" : [{"buffer" : 0, "byteOffset" : 0, "byteLength" : 5892, "target" : 34963}, {"buffer" : 0, "byteOffset" : 5896, "byteLength" : 36288, "byteStride" : 32, "target" : 34962}], "meshes" : [{"primitives" : [{"attributes" : {"POSITION" : 1, "TEXCOORD_0" : 2, "NORMAL" : 3}, "indices" : 0, "mode" : 4}], "name" : ""}], "nodes" : [{"mesh" : 0, "name" : "Dolphin_Low_Poly"}], "scene" : 0, "scenes" : [{"nodes" : [0]}]}